# 3ds Max Wavefront OBJ Exporter v0.97b - (c)2007 guruware
# File Created: 22.10.2016 00:40:50

mtllib CerealModel.mtl

#
# object Mr_SaturnRings
#

v  -8.4545 0.0000 2.3163
v  8.4545 0.0000 2.3163
v  -8.4545 0.0000 -2.3163
v  8.4545 0.0000 -2.3163
v  -8.4545 23.0948 2.3190
v  8.4545 23.0948 2.3190
v  -8.4545 23.0705 -2.3163
v  8.4545 23.0705 -2.3163
v  8.4545 23.2625 -0.1185
v  -8.4545 23.2625 -0.1185
v  8.4545 22.7717 2.3163
v  -8.4545 22.7717 2.3163
v  8.4545 22.7717 -2.3163
v  -8.4545 22.7717 -2.3163
v  -8.4545 23.1543 -1.2188
v  8.4545 23.1543 -1.2188
v  2.3163 23.2868 -0.1158
v  -2.3163 23.1543 -1.2188
v  -2.3163 23.2868 -0.1158
v  2.3163 23.1543 -1.2188
v  -0.0000 23.2868 -0.1158
v  -0.0000 23.1543 -1.4751
v  8.4545 23.2030 -1.2133
v  2.3163 23.2030 -1.2133
v  -0.0000 23.2030 -1.4696
v  -2.3163 23.2030 -1.2133
v  -8.4545 23.2030 -1.2133
# 27 vertices

vn 0.0000 -1.0000 -0.0000
vn 0.0000 -1.0000 -0.0000
vn 0.0000 -1.0000 -0.0000
vn 0.0000 -1.0000 -0.0000
vn 0.0000 0.9976 0.0686
vn 0.0017 0.9975 0.0700
vn 0.0031 1.0000 0.0077
vn 0.0024 0.6938 0.7202
vn -0.0019 0.6902 0.7236
vn -0.0019 0.9999 0.0101
vn -0.0022 1.0000 0.0085
vn 0.0000 0.0000 1.0000
vn 0.0000 0.0000 1.0000
vn 0.0000 -0.0042 1.0000
vn 0.0000 -0.0042 1.0000
vn 1.0000 0.0000 -0.0000
vn 1.0000 0.0000 -0.0000
vn 1.0000 0.0000 -0.0000
vn 1.0000 0.0000 -0.0000
vn -0.0000 0.0000 -1.0000
vn -0.0000 0.0000 -1.0000
vn -0.0000 0.0000 -1.0000
vn -0.0000 0.0000 -1.0000
vn -1.0000 0.0000 0.0000
vn -1.0000 0.0000 0.0000
vn -1.0000 0.0000 0.0000
vn -1.0000 0.0000 0.0000
vn 0.0031 1.0000 0.0077
vn 0.0035 0.9984 -0.0567
vn 0.0044 0.9971 -0.0761
vn 0.0024 0.6938 0.7202
vn 0.0000 -0.0042 1.0000
vn 0.0000 -0.0084 1.0000
vn 0.0000 -0.0084 1.0000
vn 0.0000 -0.0042 1.0000
vn 1.0000 0.0000 -0.0000
vn 1.0000 0.0000 -0.0000
vn 1.0000 0.0000 -0.0000
vn 1.0000 0.0000 -0.0000
vn 1.0000 0.0000 -0.0000
vn 1.0000 0.0000 -0.0000
vn -0.0000 0.0000 -1.0000
vn -0.0000 0.0000 -1.0000
vn -0.0000 0.0000 -1.0000
vn -0.0000 0.0000 -1.0000
vn -1.0000 0.0000 0.0000
vn -1.0000 0.0000 0.0000
vn -1.0000 0.0000 0.0000
vn -1.0000 0.0000 0.0000
vn -1.0000 0.0000 0.0000
vn -1.0000 0.0000 0.0000
vn -0.0002 0.9971 -0.0762
vn -0.0000 0.9971 -0.0761
vn -0.0049 0.9988 -0.0488
vn 0.0036 0.9912 -0.1326
vn 0.0000 1.0000 -0.0000
vn 0.0001 0.9971 -0.0761
vn -0.0000 0.9971 -0.0761
vn -0.0012 0.9973 -0.0737
vn -0.0035 0.9984 -0.0567
vn -0.0022 1.0000 0.0085
vn -0.0019 0.9999 0.0101
vn -0.0019 0.6902 0.7236
vn 0.0024 0.6938 0.7202
vn 0.0044 0.9971 -0.0761
vn -0.0022 0.9980 -0.0639
vn -0.0019 0.6902 0.7236
vn -0.0022 0.9980 -0.0639
vn -0.0012 0.9973 -0.0737
vn -0.0019 0.9999 0.0101
vn 1.0000 0.0000 -0.0000
vn 1.0000 0.0000 -0.0000
vn 1.0000 0.0000 -0.0000
vn -0.0000 0.1109 -0.9938
vn -0.0000 0.1109 -0.9938
vn -0.0000 0.1109 -0.9938
vn -0.0000 0.1109 -0.9938
vn 0.1093 0.1102 -0.9879
vn 0.1093 0.1102 -0.9879
vn 0.1093 0.1102 -0.9879
vn 0.1093 0.1102 -0.9879
vn -0.1093 0.1102 -0.9879
vn -0.1093 0.1102 -0.9879
vn -0.1093 0.1102 -0.9879
vn -0.1093 0.1102 -0.9879
vn -0.0000 0.1109 -0.9938
vn -0.0000 0.1109 -0.9938
vn -0.0000 0.1109 -0.9938
vn -0.0000 0.1109 -0.9938
vn -1.0000 0.0000 0.0000
vn -1.0000 0.0000 0.0000
vn -1.0000 0.0000 0.0000
# 92 vertex normals

vt 0.0266 0.9330 0.0000
vt 0.3209 0.9330 0.0000
vt 0.0266 0.8524 0.0000
vt 0.3209 0.8524 0.0000
vt 0.0304 0.4911 0.0000
vt 0.3251 0.4911 0.0000
vt 0.0293 0.7623 0.0000
vt 0.3236 0.7623 0.0000
vt 0.3944 0.0291 0.0000
vt 0.7691 0.0293 0.0000
vt 0.4766 0.0292 0.0000
vt 0.3251 0.5303 0.0000
vt 0.7696 0.4220 0.0000
vt 0.1015 0.0291 0.0000
vt 0.8493 0.0292 0.0000
vt 0.8495 0.4219 0.0000
vt 0.4767 0.4221 0.0000
vt 0.2182 0.5302 0.0000
vt 0.3944 0.4219 0.0000
vt 0.1015 0.4218 0.0000
vt 0.1778 0.5302 0.0000
vt 0.7695 0.4270 0.0000
vt 0.1374 0.5302 0.0000
vt 0.0304 0.5303 0.0000
vt 0.0188 0.6287 0.0000
vt 0.3251 0.5494 0.0000
vt 0.3324 0.6256 0.0000
vt 0.4767 0.4262 0.0000
vt 0.2182 0.5494 0.0000
vt 0.8501 0.4273 0.0000
vt 0.8311 0.4291 0.0000
vt 0.4327 0.4296 0.0000
vt 0.8119 0.4309 0.0000
vt 0.3944 0.4271 0.0000
vt 0.1015 0.4268 0.0000
vt 0.4135 0.4287 0.0000
vt 0.0293 0.7432 0.0000
vt 0.1374 0.5494 0.0000
vt 0.3236 0.7432 0.0000
vt 0.0304 0.5494 0.0000
vt 0.1778 0.5538 0.0000
vt 0.1361 0.7431 0.0000
vt 0.0376 0.6247 0.0000
vt 0.2167 0.7431 0.0000
vt 0.0376 0.6256 0.0000
vt 0.1764 0.7493 0.0000
vt 0.1444 0.6250 0.0000
vt 0.1444 0.6259 0.0000
vt 0.1850 0.6247 0.0000
vt 0.2256 0.6253 0.0000
vt 0.3512 0.6296 0.0000
vt 0.1850 0.6255 0.0000
vt 0.2256 0.6261 0.0000
vt 0.3324 0.6264 0.0000
# 54 texture coords

g Mr_SaturnRings
usemtl Material__25
s 1
f 1/1/1 3/3/2 4/4/3 2/2/4 
f 5/5/5 6/6/6 9/12/7 17/18/8 21/21/9 19/23/10 10/24/11 
s 2
f 1/11/12 2/10/13 11/13/14 12/17/15 
s 4
f 2/10/16 4/15/17 13/16/18 11/13/19 
s 2
f 4/14/20 3/9/21 14/19/22 13/20/23 
s 4
f 3/9/24 1/11/25 12/17/26 14/19/27 
s 1
f 9/12/28 23/26/29 24/29/30 17/18/31 
s 2
f 11/13/32 6/22/33 5/28/34 12/17/35 
s 4
f 16/31/36 9/33/37 6/22/38 11/13/39 13/16/40 8/30/41 
s 2
f 14/19/42 7/34/43 8/35/44 13/20/45 
s 4
f 12/17/46 5/28/47 10/32/48 15/36/49 7/34/50 14/19/51 
s 1
f 7/7/52 15/37/53 18/42/54 22/46/55 20/44/56 16/39/57 8/8/58 
f 26/38/59 27/40/60 10/24/61 19/23/62 
f 21/21/63 17/18/64 24/29/65 25/41/66 
f 21/21/67 25/41/68 26/38/69 19/23/70 
s off
f 9/25/71 16/43/72 23/45/73 
f 16/43/74 20/47/75 24/48/76 23/45/77 
f 20/47/78 22/49/79 25/52/80 24/48/81 
f 22/49/82 18/50/83 26/53/84 25/52/85 
f 18/50/86 15/27/87 27/54/88 26/53/89 
f 15/27/90 10/51/91 27/54/92 
# 19 polygons - 2 triangles

