# Blender v2.78 (sub 0) OBJ File: ''
# www.blender.org
mtllib crystall 3.mtl
o Cube.001_Cube.002
v -0.475284 2.526423 0.448302
v 0.164548 2.678835 0.557872
v 0.126957 3.171213 0.320872
v -0.163550 3.117725 0.263896
v 0.662080 2.520582 0.175955
v 0.477337 3.016855 -0.028777
v 0.415798 2.923625 -0.197394
v 0.337185 2.504644 0.649350
v 0.153181 1.075219 0.777417
v 0.726102 1.722368 0.003665
v 0.395645 1.909611 -0.634613
v 0.610763 1.320535 -0.400573
v -0.071000 0.463108 -0.713594
v 0.511704 0.602225 -0.352624
v 0.159017 0.255707 -0.529826
v 0.569736 0.552986 0.116967
v 0.509679 0.362703 -0.113589
v 0.334685 0.482932 0.453683
v 0.116888 1.081785 0.784934
v -0.199652 1.925345 0.802136
v -0.202850 2.795036 -0.346793
v 0.123333 1.674954 -0.776607
v -0.438422 2.175817 -0.647832
v -0.662720 0.989718 0.481402
v -0.701674 0.628632 -0.451702
v -0.425493 0.081386 0.335411
v -0.465814 0.278851 0.441029
v -0.611726 0.655949 -0.585783
v -0.405335 1.955140 0.730678
v 0.240682 0.034365 -0.184015
v -0.883656 1.413370 -0.174764
v -0.880828 1.463370 -0.062404
v -0.041088 -0.046039 0.226190
v -0.664400 1.718567 -0.587248
vt 0.0454 0.6681
vt 0.1643 0.7436
vt 0.1131 0.8441
vt 0.0576 0.8156
vt 0.2828 0.7974
vt 0.2098 0.8887
vt 0.6824 0.7362
vt 0.6169 0.6410
vt 0.6387 0.6062
vt 0.2073 0.7179
vt 0.2995 0.4839
vt 0.4191 0.6818
vt 0.6712 0.4057
vt 0.5234 0.5586
vt 0.5234 0.3726
vt 0.6189 0.2907
vt 0.7952 0.1224
vt 0.6403 0.1433
vt 0.7301 0.0695
vt 0.5392 0.1100
vt 0.6030 0.0783
vt 0.3928 0.3931
vt 0.2928 0.4817
vt 0.5232 0.3685
vt 0.4766 0.4233
vt 0.1711 0.5857
vt 0.7545 0.5815
vt 0.7295 0.3645
vt 0.8115 0.4704
vt 0.1677 0.3848
vt 0.0794 0.2029
vt 0.2931 0.2487
vt 0.2736 0.2911
vt 0.2333 0.0292
vt 0.2568 0.0001
vt 0.3909 0.0001
vt 0.1336 0.5704
vt 0.7527 0.7257
vt 0.6635 0.0001
vt 0.0001 0.3766
vt 0.0131 0.3998
vt 0.3887 0.2439
vt 0.9160 0.1822
vt 0.9540 0.1852
vt 0.9842 0.3811
vt 0.8704 0.4001
vt 0.5072 0.2667
vt 0.9999 0.4035
vt 0.9133 0.6749
vt 0.4455 0.0614
vt 0.4621 0.1555
vn -0.2472 0.4049 0.8803
vn 0.6764 0.4219 0.6037
vn -0.0720 0.8838 -0.4623
vn 0.8241 -0.0556 0.5637
vn 0.8949 0.1616 -0.4159
vn 0.5444 -0.1304 -0.8286
vn 0.9801 -0.1443 -0.1362
vn 0.1015 -0.4530 0.8857
vn 0.6875 -0.6377 0.3473
vn 0.2128 0.0600 0.9752
vn 0.1388 0.3898 -0.9104
vn -0.9514 -0.2718 0.1449
vn -0.3917 -0.8142 -0.4286
vn 0.5400 0.7429 0.3956
vn -0.1307 -0.3087 0.9421
vn 0.7247 -0.4898 -0.4846
vn 0.9801 -0.1443 -0.1363
vn -0.3436 -0.1479 0.9274
vn -0.8822 0.1174 0.4561
vn -0.8610 -0.0337 -0.5076
vn -0.8928 0.4195 -0.1642
vn -0.2344 -0.0130 -0.9721
vn -0.2110 0.3922 0.8953
usemtl MAT_crystal
s off
f 1/1/1 2/2/1 3/3/1 4/4/1
f 3/3/2 2/2/2 5/5/2 6/6/2
f 3/7/3 6/8/3 7/9/3
f 8/10/4 9/11/4 10/12/4 5/5/4
f 11/13/5 5/14/5 10/15/5 12/16/5
f 13/17/6 12/16/6 14/18/6 15/19/6
f 14/18/7 12/16/7 16/20/7 17/21/7
f 18/22/8 9/11/8 19/23/8
f 17/24/9 16/25/9 18/22/9
f 9/11/10 8/10/10 20/26/10 19/23/10
f 21/27/11 11/13/11 22/28/11 23/29/11
f 21/27/11 7/9/11 11/13/11
f 24/30/12 25/31/12 26/32/12 27/33/12
f 25/34/13 28/35/13 13/36/13
f 6/8/5 5/14/5 11/13/5 7/9/5
f 1/1/1 29/37/1 20/26/1
f 8/10/14 5/5/14 2/2/14
f 19/23/15 24/30/15 27/33/15 18/22/15
f 4/38/3 3/7/3 7/9/3 21/27/3
f 10/12/4 9/11/4 18/22/4 16/25/4
f 15/19/16 14/18/16 17/21/16 30/39/16
f 10/15/17 16/20/17 12/16/17
f 11/13/6 12/16/6 13/17/6 22/28/6
f 29/37/18 24/30/18 19/23/18 20/26/18
f 31/40/12 25/31/12 24/30/12 32/41/12
f 32/41/19 24/30/19 29/37/19 1/1/19
f 18/22/8 27/33/8 26/32/8 33/42/8
f 28/43/20 25/44/20 31/45/20 34/46/20
f 17/24/9 18/22/9 33/42/9 30/47/9
f 23/29/21 32/48/21 1/49/21 21/27/21
f 23/29/21 34/46/21 31/45/21 32/48/21
f 4/38/21 21/27/21 1/49/21
f 13/17/22 28/43/22 22/28/22
f 23/29/22 22/28/22 28/43/22 34/46/22
f 15/50/13 33/42/13 26/32/13 25/34/13
f 15/50/13 30/51/13 33/42/13
f 20/26/23 8/10/23 2/2/23 1/1/23
f 25/34/13 13/36/13 15/50/13
