# Blender v2.78 (sub 0) OBJ File: ''
# www.blender.org
mtllib crystall 2.mtl
o Cube.002_Cube.003
v -0.353445 2.526423 -0.599878
v -0.892183 2.678835 -0.237727
v -0.701450 3.171213 -0.092112
v -0.451858 3.117725 -0.251310
v -0.988809 2.520582 0.382000
v -0.713826 3.016855 0.402728
v -0.552941 2.923625 0.482321
v -1.080261 2.504644 -0.184829
v -1.035433 1.075219 -0.404486
v -0.916277 1.722368 0.550883
v -0.236688 1.909611 0.784893
v -0.553880 1.320535 0.763909
v 0.155584 0.463108 0.520095
v -0.515259 0.602225 0.660854
v -0.137706 0.255707 0.545779
v -0.881266 0.552986 0.360984
v -0.678719 0.362703 0.486433
v -0.943448 0.482932 -0.044923
v -1.014349 1.081785 -0.434968
v -0.797092 1.925345 -0.665821
v -0.002057 2.795036 0.163616
v 0.058394 1.674954 0.699790
v 0.376166 2.175817 0.218986
v -0.240608 0.989718 -0.753161
v 0.431396 0.628632 -0.104616
v -0.311595 0.081386 -0.483808
v -0.355281 0.278851 -0.588079
v 0.458800 0.655949 0.054498
v -0.598906 1.955140 -0.756011
v -0.435416 0.034365 0.351812
v 0.372045 1.413370 -0.430638
v 0.292475 1.463370 -0.510017
v -0.514485 -0.046039 -0.139523
v 0.497938 1.718567 0.019216
vt 0.0454 0.6681
vt 0.1643 0.7436
vt 0.1131 0.8441
vt 0.0576 0.8156
vt 0.2828 0.7974
vt 0.2098 0.8887
vt 0.6824 0.7362
vt 0.6169 0.6410
vt 0.6387 0.6062
vt 0.2073 0.7179
vt 0.2995 0.4839
vt 0.4191 0.6818
vt 0.6712 0.4057
vt 0.5234 0.5586
vt 0.5234 0.3726
vt 0.6189 0.2907
vt 0.7952 0.1224
vt 0.6403 0.1433
vt 0.7301 0.0695
vt 0.5392 0.1100
vt 0.6030 0.0783
vt 0.3928 0.3931
vt 0.2928 0.4817
vt 0.5232 0.3685
vt 0.4766 0.4233
vt 0.1711 0.5857
vt 0.7545 0.5815
vt 0.7295 0.3645
vt 0.8115 0.4704
vt 0.1677 0.3848
vt 0.0794 0.2029
vt 0.2931 0.2487
vt 0.2736 0.2911
vt 0.2333 0.0292
vt 0.2568 0.0001
vt 0.3909 0.0001
vt 0.1336 0.5704
vt 0.7527 0.7257
vt 0.6635 0.0001
vt 0.0001 0.3766
vt 0.0131 0.3998
vt 0.3887 0.2439
vt 0.9160 0.1822
vt 0.9540 0.1852
vt 0.9842 0.3811
vt 0.8704 0.4001
vt 0.5072 0.2667
vt 0.9999 0.4035
vt 0.9133 0.6749
vt 0.4455 0.0614
vt 0.4621 0.1555
vn -0.4285 0.4049 -0.8078
vn -0.9062 0.4219 0.0297
vn 0.3712 0.8838 0.2850
vn -0.9855 -0.0556 0.1606
vn -0.3608 0.1616 0.9185
vn 0.1776 -0.1304 0.9754
vn -0.6154 -0.1443 0.7749
vn -0.6846 -0.4530 -0.5711
vn -0.7373 -0.6377 0.2230
vn -0.8269 0.0600 -0.5591
vn 0.5276 0.3898 0.7548
vn 0.5887 -0.2718 -0.7613
vn 0.5792 -0.8142 0.0400
vn -0.6638 0.7429 0.0862
vn -0.5555 -0.3087 -0.7721
vn -0.1902 -0.4898 0.8508
vn -0.3912 -0.1478 -0.9084
vn 0.3239 0.1174 -0.9388
vn 0.9734 -0.0337 -0.2266
vn 0.7595 0.4195 -0.4971
vn 0.8403 -0.0130 0.5419
vn -0.4650 0.3922 -0.7937
usemtl MAT_crystal
s off
f 1/1/1 2/2/1 3/3/1 4/4/1
f 3/3/2 2/2/2 5/5/2 6/6/2
f 3/7/3 6/8/3 7/9/3
f 8/10/4 9/11/4 10/12/4 5/5/4
f 11/13/5 5/14/5 10/15/5 12/16/5
f 13/17/6 12/16/6 14/18/6 15/19/6
f 14/18/7 12/16/7 16/20/7 17/21/7
f 18/22/8 9/11/8 19/23/8
f 17/24/9 16/25/9 18/22/9
f 9/11/10 8/10/10 20/26/10 19/23/10
f 21/27/11 11/13/11 22/28/11 23/29/11
f 21/27/11 7/9/11 11/13/11
f 24/30/12 25/31/12 26/32/12 27/33/12
f 25/34/13 28/35/13 13/36/13
f 6/8/5 5/14/5 11/13/5 7/9/5
f 1/1/1 29/37/1 20/26/1
f 8/10/14 5/5/14 2/2/14
f 19/23/15 24/30/15 27/33/15 18/22/15
f 4/38/3 3/7/3 7/9/3 21/27/3
f 10/12/4 9/11/4 18/22/4 16/25/4
f 15/19/16 14/18/16 17/21/16 30/39/16
f 10/15/7 16/20/7 12/16/7
f 11/13/6 12/16/6 13/17/6 22/28/6
f 29/37/17 24/30/17 19/23/17 20/26/17
f 31/40/12 25/31/12 24/30/12 32/41/12
f 32/41/18 24/30/18 29/37/18 1/1/18
f 18/22/8 27/33/8 26/32/8 33/42/8
f 28/43/19 25/44/19 31/45/19 34/46/19
f 17/24/9 18/22/9 33/42/9 30/47/9
f 23/29/20 32/48/20 1/49/20 21/27/20
f 23/29/20 34/46/20 31/45/20 32/48/20
f 4/38/20 21/27/20 1/49/20
f 13/17/21 28/43/21 22/28/21
f 23/29/21 22/28/21 28/43/21 34/46/21
f 15/50/13 33/42/13 26/32/13 25/34/13
f 15/50/13 30/51/13 33/42/13
f 20/26/22 8/10/22 2/2/22 1/1/22
f 25/34/13 13/36/13 15/50/13
